<?xml version="1.0" encoding="UTF-8"?>
<svg width="32px" height="43px" viewBox="0 0 32 43" version="1.1" xmlns="http://www.w3.org/2000/svg" xmlns:xlink="http://www.w3.org/1999/xlink">
    <!-- Generator: Sketch 41.2 (35397) - http://www.bohemiancoding.com/sketch -->
    <title>icons/icn-location-pin</title>
    <desc>Created with Sketch.</desc>
    <defs></defs>
    <g id="Page-1" stroke="none" stroke-width="1" fill="none" fill-rule="evenodd">
        <g id="Rensource_Team_V1" transform="translate(-704.000000, -1302.000000)" fill="#fcc04e">
            <g id="Group-2" transform="translate(0.000000, 1189.000000)">
                <g id="Group-3" transform="translate(262.000000, 113.000000)">
                    <path d="M458,0 C449.165333,0 442,7.16533333 442,16 C442,26.2773333 453.522667,39.1013333 455.333333,41.0613333 C456.082667,41.8746667 456.709333,42.6666667 458,42.6666667 C459.290667,42.6666667 459.917333,41.8746667 460.666667,41.0613333 C462.477333,39.1013333 474,26.2773333 474,16 C474,7.16533333 466.834667,0 458,0 Z M458,26.6666667 C452.109333,26.6666667 447.333333,21.8906667 447.333333,16 C447.333333,10.1093333 452.109333,5.33333333 458,5.33333333 C463.890667,5.33333333 468.666667,10.1093333 468.666667,16 C468.666667,21.8906667 463.890667,26.6666667 458,26.6666667 Z M458,10.6666667 C455.056,10.6666667 452.666667,13.056 452.666667,16 C452.666667,18.944 455.056,21.3333333 458,21.3333333 C460.944,21.3333333 463.333333,18.944 463.333333,16 C463.333333,13.056 460.944,10.6666667 458,10.6666667 Z" id="icons/icn-location-pin"></path>
                </g>
            </g>
        </g>
    </g>
</svg>