<?xml version="1.0" encoding="UTF-8"?>
<svg width="27px" height="25px" viewBox="0 0 27 25" version="1.1" xmlns="http://www.w3.org/2000/svg" xmlns:xlink="http://www.w3.org/1999/xlink">
    <!-- Generator: Sketch 41.2 (35397) - http://www.bohemiancoding.com/sketch -->
    <title>icons/icn-care</title>
    <desc>Created with Sketch.</desc>
    <defs></defs>
    <g id="Page-1" stroke="none" stroke-width="1" fill="none" fill-rule="evenodd">
        <g id="Rensource_Team_V1-Copy" transform="translate(-919.000000, -2245.000000)" fill="#A5C44C">
            <g id="Group" transform="translate(919.000000, 2245.000000)">
                <path d="M16.7142857,9.64285714 C16.7142857,10.7074286 15.8502857,11.5714286 14.7857143,11.5714286 C13.7211429,11.5714286 12.8571429,10.7074286 12.8571429,9.64285714 C12.8571429,8.57828571 13.7211429,7.71428571 14.7857143,7.71428571 C15.8502857,7.71428571 16.7142857,8.57828571 16.7142857,9.64285714 Z M21.8571429,9.64285714 C21.8571429,10.7074286 20.9931429,11.5714286 19.9285714,11.5714286 C18.864,11.5714286 18,10.7074286 18,9.64285714 C18,8.57828571 18.864,7.71428571 19.9285714,7.71428571 C20.9931429,7.71428571 21.8571429,8.57828571 21.8571429,9.64285714 Z M27,9.64285714 C27,10.7074286 26.136,11.5714286 25.0714286,11.5714286 C24.0068571,11.5714286 23.1428571,10.7074286 23.1428571,9.64285714 C23.1428571,8.57828571 24.0068571,7.71428571 25.0714286,7.71428571 C26.136,7.71428571 27,8.57828571 27,9.64285714 Z M21.8571429,24.4285714 L15.4285714,24.4285714 C6.921,24.4285714 -1.77635684e-15,17.5075714 -1.77635684e-15,9 L-1.77635684e-15,2.57142857 C-1.77635684e-15,1.15328571 1.15328571,0 2.57142857,0 L7.71428571,0 C9.13242857,0 10.2857143,1.15328571 10.2857143,2.57142857 L10.2857143,7.71428571 C10.2857143,9.09257143 9.19542857,10.2214286 7.83257143,10.2831429 C8.39442857,13.6054286 10.8758571,16.0945714 14.1441429,16.614 C14.1981429,15.2421429 15.3295714,14.1428571 16.7142857,14.1428571 L21.8571429,14.1428571 C23.2752857,14.1428571 24.4285714,15.2961429 24.4285714,16.7142857 L24.4285714,21.8571429 C24.4285714,23.2752857 23.2752857,24.4285714 21.8571429,24.4285714 Z M2.57142857,2.57142857 L2.57142857,9 C2.57142857,16.0894286 8.33914286,21.8571429 15.4285714,21.8571429 L21.8584286,21.8571429 L21.8571429,16.7142857 L16.7142857,16.7142857 L16.7142857,18 C16.7142857,18.7097143 16.1382857,19.2857143 15.4285714,19.2857143 C9.65828571,19.2857143 5.23542857,14.8718571 5.14285714,9.02057143 C5.13771429,8.676 5.27014286,8.34428571 5.51185714,8.09742857 C5.75357143,7.85185714 6.084,7.71428571 6.42857143,7.71428571 L7.71428571,7.71428571 L7.71428571,2.57142857 L2.57142857,2.57142857 Z" id="icons/icn-care"></path>
            </g>
        </g>
    </g>
</svg>