<?xml version="1.0" encoding="UTF-8"?>
<svg width="28px" height="30px" viewBox="0 0 28 30" version="1.1" xmlns="http://www.w3.org/2000/svg" xmlns:xlink="http://www.w3.org/1999/xlink">
    <!-- Generator: Sketch 41.2 (35397) - http://www.bohemiancoding.com/sketch -->
    <title>icons/icn-installation</title>
    <desc>Created with Sketch.</desc>
    <defs></defs>
    <g id="Page-1" stroke="none" stroke-width="1" fill="none" fill-rule="evenodd">
        <g id="Rensource_Landing_V1a" transform="translate(-159.000000, -3323.000000)" fill="#A5C44C">
            <g id="Fill-1501-+-Fill-1502" transform="translate(159.000000, 3323.000000)">
                <path d="M24.46038,11.48294 L16.28998,22.71654 L5.03958,14.28014 L10.07958,7.56014 L14.51058,10.88374 L18.61818,5.23474 C18.03438,4.96874 17.43238,4.73214 16.79958,4.56834 L16.79958,1.40014 L11.19958,1.40014 L11.19958,4.56834 C9.93818,4.89594 8.75798,5.42514 7.70938,6.14054 L5.58558,4.01534 L2.61478,6.98474 L4.73998,9.10994 C4.02458,10.15854 3.49538,11.33734 3.16918,12.60014 L-0.00042,12.60014 L-0.00042,18.20014 L3.16918,18.20014 C3.49538,19.46294 4.02458,20.64174 4.73998,21.69034 L2.61478,23.81554 L5.58558,26.78494 L7.70938,24.66114 C8.75798,25.37514 9.93818,25.90434 11.19958,26.23194 L11.19958,29.40014 L16.79958,29.40014 L16.79958,26.23194 C18.06238,25.90434 19.24118,25.37514 20.28978,24.66114 L22.41498,26.78494 L25.38438,23.81554 L23.26058,21.69034 C23.97458,20.64174 24.50518,19.46294 24.83138,18.20014 L27.99958,18.20014 L27.99958,12.60014 L24.83138,12.60014 C24.73198,12.21654 24.59758,11.84974 24.46038,11.48294 Z M15.69666,18.77288 L8.95986,13.72028 L10.63986,11.48028 L15.10306,14.82768 L25.46726,0.57708 L27.73246,2.22348 L15.69666,18.77288 Z" id="icons/icn-installation"></path>
            </g>
        </g>
    </g>
</svg>