<?xml version="1.0" encoding="UTF-8"?>
<svg width="28px" height="29px" viewBox="0 0 28 29" version="1.1" xmlns="http://www.w3.org/2000/svg" xmlns:xlink="http://www.w3.org/1999/xlink">
    <!-- Generator: Sketch 41.2 (35397) - http://www.bohemiancoding.com/sketch -->
    <title>icons/icn-moving</title>
    <desc>Created with Sketch.</desc>
    <defs></defs>
    <g id="Page-1" stroke="none" stroke-width="1" fill="none" fill-rule="evenodd">
        <g id="Rensource_Landing_V1a" transform="translate(-445.000000, -3323.000000)" fill="#fcc04e">
            <g id="i" transform="translate(445.000000, 3323.700000)">
                <path d="M18.4706667,0.519516667 C18.2536667,0.195183333 17.8896667,0.00035 17.5,0.00035 L12.8333333,0.00035 L12.8333333,7.00035 L22.7908333,7.00035 L18.4706667,0.519516667 Z M17.5,16.3333333 L17.5,14 C17.5,13.356 18.0226667,12.8333333 18.6666667,12.8333333 L23.3333333,12.8333333 L23.3333333,9.33333333 L0,9.33333333 L0,22.1666667 C0,22.8118333 0.522666667,23.3333333 1.16666667,23.3333333 L8.26,23.3333333 C8.827,19.3771667 12.2208333,16.3333333 16.3333333,16.3333333 L17.5,16.3333333 Z M10.5,0 L5.83333333,0 C5.44366667,0 5.07966667,0.194833333 4.86266667,0.519166667 L0.5425,7 L10.5,7 L10.5,0 Z M21.8248333,14.3418333 L20.1751667,15.9915 L22.8503333,18.6666667 L17.5,18.6666667 C13.6395,18.6666667 10.5,21.8061667 10.5,25.6666667 L10.5,28 L12.8333333,28 L12.8333333,25.6666667 C12.8333333,23.093 14.9263333,21 17.5,21 L22.8503333,21 L20.1751667,23.6751667 L21.8248333,25.3248333 L27.3163333,19.8333333 L21.8248333,14.3418333 Z" id="icons/icn-moving"></path>
            </g>
        </g>
    </g>
</svg>