<?xml version="1.0" encoding="UTF-8"?>
<svg width="24px" height="24px" viewBox="0 0 24 24" version="1.1" xmlns="http://www.w3.org/2000/svg" xmlns:xlink="http://www.w3.org/1999/xlink">
    <!-- Generator: Sketch 41.2 (35397) - http://www.bohemiancoding.com/sketch -->
    <title>icons/icn-around-clock</title>
    <desc>Created with Sketch.</desc>
    <defs></defs>
    <g id="Page-1" stroke="none" stroke-width="1" fill="none" fill-rule="evenodd">
        <g id="Rensource_Landing_V1a" transform="translate(-707.000000, -2025.000000)" fill="#FCC04E">
            <g id="Group-10-Copy" transform="translate(545.000000, 1998.000000)">
                <g id="Group-32" transform="translate(135.000000, 0.000000)">
                    <g id="Fill-1356-+-Fill-1357-+-Fill-1358" transform="translate(27.000000, 27.000000)">
                        <path d="M6.4287,11.1431 L8.1437,11.1431 L8.1437,10.2851 C8.1437,9.8131 8.5287,9.4281 8.9997,9.4281 C9.4727,9.4281 9.8577,9.8131 9.8577,10.2851 C9.8577,11.1221 8.2077,13.2921 6.6797,14.8231 C6.4347,15.0681 6.3617,15.4351 6.4937,15.7561 C6.6267,16.0771 6.9397,16.2851 7.2857,16.2851 L11.5717,16.2851 L11.5717,14.5721 L9.2377,14.5721 C10.3047,13.3121 11.5717,11.5521 11.5717,10.2851 C11.5717,8.8681 10.4177,7.7141 8.9997,7.7141 C7.5817,7.7141 6.4287,8.8681 6.4287,10.2851 L6.4287,11.1431 Z M16.105,7.7519 C15.745,7.6399 15.354,7.7829 15.144,8.0969 L11.716,13.2389 C11.54,13.5019 11.524,13.8399 11.673,14.1189 C11.822,14.3979 12.112,14.5729 12.429,14.5729 L15,14.5729 L15,16.2859 L16.714,16.2859 L16.714,14.5729 L17.571,14.5729 L17.571,12.8579 L16.714,12.8579 L16.714,8.5729 C16.714,8.1939 16.468,7.8609 16.105,7.7519 Z M15,12.8579 L14.03,12.8579 L15,11.4029 L15,12.8579 Z M12,0 C10.962,0 9.961,0.146 9,0.395 L9,2.461 C9.948,2.163 10.955,2 12,2 C17.514,2 22,6.486 22,12 C22,17.514 17.514,22 12,22 C6.486,22 2,17.514 2,12 C2,9.212 3.152,6.694 5,4.881 L5,8 L7,8 L7,2 L1,2 L1,4 L3.079,4 C1.17,6.125 0,8.925 0,12 C0,18.617 5.383,24 12,24 C18.617,24 24,18.617 24,12 C24,5.383 18.617,0 12,0 Z" id="icons/icn-around-clock"></path>
                    </g>
                </g>
            </g>
        </g>
    </g>
</svg>