<?xml version="1.0" encoding="UTF-8"?>
<svg width="24px" height="22px" viewBox="0 0 24 22" version="1.1" xmlns="http://www.w3.org/2000/svg" xmlns:xlink="http://www.w3.org/1999/xlink">
    <!-- Generator: Sketch 41.2 (35397) - http://www.bohemiancoding.com/sketch -->
    <title>icons/icn-giving-hand</title>
    <desc>Created with Sketch.</desc>
    <defs></defs>
    <g id="Page-1" stroke="none" stroke-width="1" fill="none" fill-rule="evenodd">
        <g id="Rensource_Landing_V1a" transform="translate(-322.000000, -2025.000000)" fill="#fcc04e">
            <g id="Group-10" transform="translate(160.000000, 1997.000000)">
                <g id="Group-33" transform="translate(135.000000, 0.000000)">
                    <g id="Fill-1263-+-Fill-1264-+-Fill-1265" transform="translate(27.000000, 28.000000)">
                        <path d="M19,2 C20.654,2 22,3.346 22,5 C22,6.654 20.654,8 19,8 C17.346,8 16,6.654 16,5 C16,3.346 17.346,2 19,2 M19,10 C21.757,10 24,7.757 24,5 C24,2.243 21.757,0 19,0 C16.243,0 14,2.243 14,5 C14,7.757 16.243,10 19,10 Z M21.8945,15.5527 C21.6855,15.1347 21.2155,14.9157 20.7575,15.0307 L13.1165,16.9397 L10.6875,15.7257 L11.7065,14.7077 C12.0975,14.3167 12.0975,13.6837 11.7065,13.2937 L10.7065,12.2937 C10.4235,12.0107 10.0005,11.9247 9.6285,12.0717 L4.9995,13.9227 L4.9995,21.0087 L12.8755,21.9927 C12.9165,21.9977 12.9585,21.9997 12.9995,21.9997 C13.1075,21.9997 13.2135,21.9827 13.3165,21.9487 L22.3165,18.9487 C22.5915,18.8577 22.8125,18.6507 22.9235,18.3827 C23.0345,18.1147 23.0235,17.8117 22.8945,17.5527 L21.8945,15.5527 Z M3,13 L1,13 C0.448,13 0,13.449 0,14 L0,21 C0,21.552 0.448,22 1,22 L3,22 C3.552,22 4,21.552 4,21 L4,14 C4,13.449 3.552,13 3,13 Z" id="icons/icn-giving-hand"></path>
                    </g>
                </g>
            </g>
        </g>
    </g>
</svg>