<?xml version="1.0" encoding="UTF-8"?>
<svg width="82px" height="82px" viewBox="0 0 82 82" version="1.1" xmlns="http://www.w3.org/2000/svg" xmlns:xlink="http://www.w3.org/1999/xlink">
    <!-- Generator: Sketch 41.2 (35397) - http://www.bohemiancoding.com/sketch -->
    <title>icons/icn-mark-big</title>
    <desc>Created with Sketch.</desc>
    <defs></defs>
    <g id="Page-1" stroke="none" stroke-width="1" fill="none" fill-rule="evenodd">
        <path d="M78.8142153,25.1268062 C80.8660702,30.0090242 82,35.3720904 82,41 C82,63.6436747 63.6436747,82 41,82 C18.3563253,82 0,63.6436747 0,41 C0,18.3563253 18.3563253,0 41,0 C52.8274961,0 63.4852754,5.00815261 70.9684036,13.0195233 C70.4976117,13.3124541 64.8116438,16.9189892 57,25 C48.8403563,33.4410107 42,43 42,43 L29,29 L19,39 L44,65 C44,65 57.8132951,45.0705199 64,38 C69.658245,31.5334343 77.5135251,26.0213017 78.8142153,25.1268062 Z" id="icons/icn-mark-big" fill="#FCC04E"></path>
    </g>
</svg>