<?xml version="1.0" encoding="UTF-8"?>
<svg width="40px" height="28px" viewBox="0 0 40 28" version="1.1" xmlns="http://www.w3.org/2000/svg" xmlns:xlink="http://www.w3.org/1999/xlink">
    <!-- Generator: Sketch 41.2 (35397) - http://www.bohemiancoding.com/sketch -->
    <title>icn-solar-panels</title>
    <desc>Created with Sketch.</desc>
    <defs></defs>
    <g id="Page-1" stroke="none" stroke-width="1" fill="none" fill-rule="evenodd">
        <g id="Rensource_Technology_V1a" transform="translate(-571.000000, -3089.000000)" fill="#A5C44C">
            <g id="Group-12" transform="translate(0.000000, 2854.000000)">
                <path d="M577.227545,235 L583.45509,235 L582.736527,241.234656 L575.790419,241.234656 L577.227545,235 Z M584.413174,235 L590.640719,235 L590.640719,241.234656 L583.694611,241.234656 L584.413174,235 Z M591.359281,235 L597.586826,235 L598.305389,241.234656 L591.359281,241.234656 L591.359281,235 Z M598.54491,235 L604.772455,235 L606.209581,241.234656 L599.263473,241.234656 L598.54491,235 Z M575.591959,241.954039 L582.736527,241.954039 L581.997434,248.188695 L574.113772,248.188695 L575.591959,241.954039 Z M583.694611,241.954039 L590.640719,241.954039 L590.640719,248.188695 L582.976048,248.188695 L583.694611,241.954039 Z M591.359281,241.954039 L598.305389,241.954039 L599.023952,248.188695 L591.359281,248.188695 L591.359281,241.954039 Z M599.263473,241.954039 L606.209581,241.954039 L607.646707,248.188695 L599.982036,248.188695 L599.263473,241.954039 Z M574.151592,248.908079 L582.017964,248.908079 L581.280492,255.142735 L572.676647,255.142735 L574.151592,248.908079 Z M582.976048,248.908079 L590.640719,248.908079 L590.640719,255.142735 L582.257485,255.142735 L582.976048,248.908079 Z M591.598802,248.908079 L599.263473,248.908079 L599.982036,255.142735 L591.598802,255.142735 L591.598802,248.908079 Z M600.221557,248.908079 L607.886228,248.908079 L609.323353,255.142735 L600.94012,255.142735 L600.221557,248.908079 Z M572.472178,255.862118 L581.05988,255.862118 L580.323791,262.096774 L571,262.096774 L572.472178,255.862118 Z M582.036874,255.862118 L590.640719,255.862118 L590.640719,262.096774 L581.299401,262.096774 L582.036874,255.862118 Z M591.598802,255.862118 L600.202647,255.862118 L600.94012,262.096774 L591.598802,262.096774 L591.598802,255.862118 Z M601.179641,255.862118 L609.562874,255.862118 L611,262.096774 L601.898204,262.096774 L601.179641,255.862118 Z" id="icn-solar-panels"></path>
            </g>
        </g>
    </g>
</svg>