<?xml version="1.0" encoding="UTF-8"?>
<svg width="33px" height="24px" viewBox="0 0 33 24" version="1.1" xmlns="http://www.w3.org/2000/svg" xmlns:xlink="http://www.w3.org/1999/xlink">
    <!-- Generator: Sketch 41.2 (35397) - http://www.bohemiancoding.com/sketch -->
    <title>icn-lithium-battery</title>
    <desc>Created with Sketch.</desc>
    <defs></defs>
    <g id="Page-1" stroke="none" stroke-width="1" fill="none" fill-rule="evenodd">
        <g id="Rensource_Technology_V1a" transform="translate(-167.000000, -3092.000000)" fill="#A5C44C">
            <g id="Group-12" transform="translate(0.000000, 2854.000000)">
                <g id="icn-lithium-battery" transform="translate(167.000000, 238.000000)">
                    <path d="M21.2693419,5.92669355 C21.1541806,6.72953226 20.0798903,13.8432097 17.7289548,16.1925 C16.6464387,17.2783065 15.2019871,17.8755 13.6670516,17.8755 C12.5549226,17.8755 11.4937935,17.5514032 10.5790839,16.9657258 L7.85963226,19.6818871 L6.11576129,17.936371 L8.83356774,15.2202097 C7.41543871,12.9959516 7.66879355,10.0050484 9.60843871,8.06704839 C11.5431484,6.13233871 18.4594065,4.78824194 19.8265355,4.53817742 L21.5111806,4.23053226 L21.2693419,5.92669355 Z M31.3541806,4.93630645 L28.0638581,4.93630645 L28.0638581,1.64598387 C28.0638581,0.736209677 27.328471,0.000822580645 26.4186968,0.000822580645 L1.74127742,0.000822580645 C0.833148387,0.000822580645 0.096116129,0.736209677 0.096116129,1.64598387 L0.096116129,21.3879194 C0.096116129,22.2960484 0.833148387,23.0330806 1.74127742,23.0330806 L26.4186968,23.0330806 C27.328471,23.0330806 28.0638581,22.2960484 28.0638581,21.3879194 L28.0638581,18.0975968 L31.3541806,18.0975968 C32.2639548,18.0975968 32.9993419,17.3605645 32.9993419,16.4524355 L32.9993419,6.58146774 C32.9993419,5.67169355 32.2639548,4.93630645 31.3541806,4.93630645 L31.3541806,4.93630645 Z" id="Fill-2748"></path>
                </g>
            </g>
        </g>
    </g>
</svg>