<?xml version="1.0" encoding="UTF-8"?>
<svg width="27px" height="25px" viewBox="0 0 27 25" version="1.1" xmlns="http://www.w3.org/2000/svg" xmlns:xlink="http://www.w3.org/1999/xlink">
    <!-- Generator: Sketch 41.2 (35397) - http://www.bohemiancoding.com/sketch -->
    <title>icons/icn-id</title>
    <desc>Created with Sketch.</desc>
    <defs></defs>
    <g id="Page-1" stroke="none" stroke-width="1" fill="none" fill-rule="evenodd">
        <g id="Rensource_Landing_V1a" transform="translate(-730.000000, -3325.000000)" fill="#fcc04e">
            <g id="Fill-1514" transform="translate(730.000000, 3325.200000)">
                <path d="M22.95,13.5 L14.85,13.5 L14.85,10.8 L22.95,10.8 L22.95,13.5 Z M22.95,18.9 L14.85,18.9 L14.85,16.2 L22.95,16.2 L22.95,18.9 Z M13.5,5.4 C12.75615,5.4 12.15,4.79385 12.15,4.05 C12.15,3.30615 12.75615,2.7 13.5,2.7 C14.24385,2.7 14.85,3.30615 14.85,4.05 C14.85,4.79385 14.24385,5.4 13.5,5.4 L13.5,5.4 Z M4.05,18.9 C4.05,16.41465 5.61465,14.85 8.1,14.85 C10.58535,14.85 12.15,16.41465 12.15,18.9 L4.05,18.9 Z M8.1,8.1 C9.5904,8.1 10.8,9.3096 10.8,10.8 C10.8,12.2904 9.5904,13.5 8.1,13.5 C6.6096,13.5 5.4,12.2904 5.4,10.8 C5.4,9.3096 6.6096,8.1 8.1,8.1 L8.1,8.1 Z M24.3,2.7 L17.30025,2.7 C16.74135,1.1313 15.2577,0 13.5,0 C11.7423,0 10.25865,1.1313 9.69975,2.7 L2.7,2.7 C1.21095,2.7 0,3.9096 0,5.4 L0,21.6 C0,23.08905 1.21095,24.3 2.7,24.3 L24.3,24.3 C25.78905,24.3 27,23.08905 27,21.6 L27,5.4 C27,3.9096 25.78905,2.7 24.3,2.7 L24.3,2.7 Z" id="icons/icn-id"></path>
            </g>
        </g>
    </g>
</svg>