<?xml version="1.0" encoding="UTF-8"?>
<svg width="27px" height="28px" viewBox="0 0 27 28" version="1.1" xmlns="http://www.w3.org/2000/svg" xmlns:xlink="http://www.w3.org/1999/xlink">
    <!-- Generator: Sketch 41.2 (35397) - http://www.bohemiancoding.com/sketch -->
    <title>icons/icn-cancel</title>
    <desc>Created with Sketch.</desc>
    <defs></defs>
    <g id="Page-1" stroke="none" stroke-width="1" fill="none" fill-rule="evenodd">
        <g id="Rensource_Landing_V1a" transform="translate(-1033.000000, -3324.000000)" fill="#A5C44C">
            <g id="Fill-48" transform="translate(1033.000000, 3324.200000)">
                <path d="M19.2767727,17.5414091 L17.5414091,19.2767727 L13.5,15.2353636 L9.45859091,19.2767727 L7.72322727,17.5414091 L11.7646364,13.5 L7.72322727,9.45859091 L9.45859091,7.72322727 L13.5,11.7646364 L17.5414091,7.72322727 L19.2767727,9.45859091 L15.2353636,13.5 L19.2767727,17.5414091 Z M27,13.5 C27,11.5400455 25.8439091,9.86236364 24.1834091,9.07568182 C24.8007273,7.344 24.4313182,5.34109091 23.0457273,3.95427273 C21.6601364,2.56868182 19.656,2.2005 17.9255455,2.81659091 C17.1376364,1.15609091 15.4599545,0 13.5,0 C11.5400455,0 9.86236364,1.15609091 9.07445455,2.81659091 C7.344,2.2005 5.33986364,2.56868182 3.95427273,3.95427273 C2.56868182,5.34109091 2.2005,7.344 2.81659091,9.07568182 C1.15609091,9.86236364 0,11.5400455 0,13.5 C0,15.4599545 1.15609091,17.1376364 2.81781818,17.9255455 C2.2005,19.656 2.56868182,21.6613636 3.95427273,23.0457273 C5.33986364,24.4313182 7.344,24.8007273 9.07445455,24.1834091 C9.86236364,25.8439091 11.5400455,27 13.5,27 C15.4599545,27 17.1376364,25.8439091 17.9255455,24.1834091 C19.656,24.8007273 21.6601364,24.4313182 23.0457273,23.0457273 C24.4313182,21.6613636 24.8007273,19.656 24.1834091,17.9255455 C25.8439091,17.1376364 27,15.4599545 27,13.5 L27,13.5 Z" id="icons/icn-cancel"></path>
            </g>
        </g>
    </g>
</svg>