<?xml version="1.0" encoding="UTF-8"?>
<svg width="20px" height="20px" viewBox="0 0 20 20" version="1.1" xmlns="http://www.w3.org/2000/svg" xmlns:xlink="http://www.w3.org/1999/xlink">
    <!-- Generator: Sketch 41.2 (35397) - http://www.bohemiancoding.com/sketch -->
    <title>icons/icn-moon</title>
    <desc>Created with Sketch.</desc>
    <defs></defs>
    <g id="Page-1" stroke="none" stroke-width="1" fill="none" fill-rule="evenodd">
        <g id="Rensource_Landing_V1a" transform="translate(-1182.000000, -877.000000)" fill="#CBCBCB">
            <g id="Group-6" transform="translate(920.000000, 620.000000)">
                <g id="Group-2" transform="translate(32.000000, 249.000000)">
                    <g id="Fill-3302-+-Fill-3303-+-Fill-3304" transform="translate(229.000000, 8.000000)">
                        <path d="M3.873,5.0908 L4.964,7.9998 L6.055,5.0908 L8.964,3.9998 L6.055,2.9088 L4.964,-0.0002 L3.873,2.9088 L0.964,3.9998 L3.873,5.0908 Z M10.2139,7.25 L7.9639,8 L10.2139,8.75 L10.9639,11 L11.7139,8.75 L13.9639,8 L11.7139,7.25 L10.9639,5 L10.2139,7.25 Z M15.486,1.071 C15.099,0.876 14.634,0.953 14.329,1.257 C14.024,1.562 13.949,2.028 14.143,2.414 C14.711,3.544 15,4.751 15,6 C15,10.411 11.411,14 7,14 C5.75,14 4.543,13.712 3.414,13.144 C3.026,12.947 2.561,13.025 2.257,13.329 C1.952,13.635 1.876,14.101 2.071,14.486 C3.783,17.888 7.204,20 11,20 C16.514,20 21,15.515 21,10 C21,6.204 18.887,2.783 15.486,1.071 Z M12.1701414,17.5806025 C10.1422183,17.8296001 8.16080929,17.3578038 6.57438665,16.3116856 C7.03843498,16.3162402 7.50559736,16.2887139 7.97411409,16.2311872 C13.4474219,15.5591495 17.394528,10.8930897 16.7725835,5.82775802 C16.7193545,5.39424278 16.6340457,4.97026032 16.5176497,4.55568875 C18.0018973,5.7215682 18.9785212,7.38143614 19.2089169,9.25785909 C19.7063598,13.3092059 16.5485891,17.0429967 12.1701414,17.5806025 Z" id="icons/icn-moon"></path>
                    </g>
                </g>
            </g>
        </g>
    </g>
</svg>